<svg width="13" height="13" viewBox="0 0 13 13" fill="none" xmlns="http://www.w3.org/2000/svg">
<path d="M1.08337 3.25C1.08337 2.96268 1.19751 2.68713 1.40067 2.48397C1.60384 2.2808 1.87939 2.16666 2.16671 2.16666H10.8334C11.1207 2.16666 11.3962 2.2808 11.5994 2.48397C11.8026 2.68713 11.9167 2.96268 11.9167 3.25V9.75C11.9167 10.0373 11.8026 10.3129 11.5994 10.516C11.3962 10.7192 11.1207 10.8333 10.8334 10.8333H2.16671C1.87939 10.8333 1.60384 10.7192 1.40067 10.516C1.19751 10.3129 1.08337 10.0373 1.08337 9.75V3.25Z" stroke="#141414" stroke-linecap="round" stroke-linejoin="round"/>
<path d="M1.08337 4.33333L5.14642 7.58387C5.53061 7.89127 6.008 8.05875 6.50004 8.05875C6.99208 8.05875 7.46947 7.89127 7.85366 7.58387L11.9167 4.33333" stroke="#141414" stroke-linejoin="round"/>
</svg>
