<svg width="16" height="16" viewBox="0 0 16 16" fill="none" xmlns="http://www.w3.org/2000/svg">
<g clip-path="url(#clip0_41_2114)">
<path d="M11.1462 13.1681L10.7196 9.75212C10.6591 9.26827 10.4239 8.82318 10.0583 8.50053C9.69272 8.17789 9.22183 7.99993 8.73422 8.00012H7.26489C6.7775 8.00026 6.30694 8.17837 5.94161 8.50098C5.57628 8.82359 5.34132 9.2685 5.28089 9.75212L4.85355 13.1681C4.8301 13.3558 4.84684 13.5463 4.90267 13.727C4.9585 13.9077 5.05213 14.0745 5.17736 14.2162C5.30258 14.358 5.45653 14.4715 5.62897 14.5491C5.80142 14.6268 5.98842 14.6669 6.17755 14.6668H9.82289C10.012 14.6668 10.1989 14.6267 10.3713 14.5489C10.5436 14.4712 10.6975 14.3577 10.8226 14.216C10.9478 14.0743 11.0414 13.9075 11.0971 13.7269C11.1529 13.5462 11.1697 13.3557 11.1462 13.1681V13.1681Z" stroke="#333A4B" stroke-linecap="round" stroke-linejoin="round"/>
<path d="M8 5.33346C9.10457 5.33346 10 4.43803 10 3.33346C10 2.22889 9.10457 1.33346 8 1.33346C6.89543 1.33346 6 2.22889 6 3.33346C6 4.43803 6.89543 5.33346 8 5.33346Z" stroke="#333A4B"/>
<path d="M2.66683 7.33346C3.40321 7.33346 4.00016 6.73651 4.00016 6.00013C4.00016 5.26375 3.40321 4.66679 2.66683 4.66679C1.93045 4.66679 1.3335 5.26375 1.3335 6.00013C1.3335 6.73651 1.93045 7.33346 2.66683 7.33346Z" stroke="#333A4B"/>
<path d="M13.3333 7.33346C14.0697 7.33346 14.6667 6.73651 14.6667 6.00013C14.6667 5.26375 14.0697 4.66679 13.3333 4.66679C12.597 4.66679 12 5.26375 12 6.00013C12 6.73651 12.597 7.33346 13.3333 7.33346Z" stroke="#333A4B"/>
<path d="M2.66672 9.33346H2.46272C2.1471 9.33342 1.84169 9.44535 1.60084 9.64933C1.35999 9.85332 1.19931 10.1361 1.14739 10.4475L0.925391 11.7808C0.893532 11.9718 0.903671 12.1675 0.955103 12.3542C1.00654 12.5409 1.09802 12.7142 1.22321 12.862C1.34839 13.0097 1.50427 13.1285 1.67999 13.2099C1.85571 13.2913 2.04706 13.3335 2.24072 13.3335H4.66672M13.3334 9.33346H13.5374C13.853 9.33342 14.1584 9.44535 14.3993 9.64933C14.6401 9.85332 14.8008 10.1361 14.8527 10.4475L15.0747 11.7808C15.1066 11.9718 15.0964 12.1675 15.045 12.3542C14.9936 12.5409 14.9021 12.7142 14.7769 12.862C14.6517 13.0097 14.4958 13.1285 14.3201 13.2099C14.1444 13.2913 13.9531 13.3335 13.7594 13.3335H11.3334" stroke="#333A4B" stroke-linecap="round" stroke-linejoin="round"/>
</g>
<defs>
<clipPath id="clip0_41_2114">
<rect width="16" height="16" fill="white"/>
</clipPath>
</defs>
</svg>
