<svg width="18" height="18" viewBox="0 0 18 18" fill="none" xmlns="http://www.w3.org/2000/svg">
<path d="M3.375 5.0625C3.375 4.31658 3.67132 3.60121 4.19876 3.07376C4.72621 2.54632 5.44158 2.25 6.1875 2.25H11.8125C12.5584 2.25 13.2738 2.54632 13.8012 3.07376C14.3287 3.60121 14.625 4.31658 14.625 5.0625V6.80625C15.2603 6.93592 15.8312 7.2811 16.2412 7.78337C16.6512 8.28563 16.8751 8.91413 16.875 9.5625V15.1875C16.875 15.3367 16.8157 15.4798 16.7102 15.5852C16.6048 15.6907 16.4617 15.75 16.3125 15.75C16.1633 15.75 16.0202 15.6907 15.9148 15.5852C15.8093 15.4798 15.75 15.3367 15.75 15.1875V12.375H2.25V15.1875C2.25 15.3367 2.19074 15.4798 2.08525 15.5852C1.97976 15.6907 1.83668 15.75 1.6875 15.75C1.53832 15.75 1.39524 15.6907 1.28975 15.5852C1.18426 15.4798 1.125 15.3367 1.125 15.1875V9.5625C1.12487 8.91413 1.34875 8.28563 1.75877 7.78337C2.16878 7.2811 2.73973 6.93592 3.375 6.80625V5.0625ZM2.25 11.25H15.75V9.5625C15.75 9.11495 15.5722 8.68572 15.2557 8.36926C14.9393 8.05279 14.5101 7.875 14.0625 7.875H3.9375C3.48995 7.875 3.06072 8.05279 2.74426 8.36926C2.42779 8.68572 2.25 9.11495 2.25 9.5625V11.25ZM13.5 5.0625C13.5 4.61495 13.3222 4.18572 13.0057 3.86926C12.6893 3.55279 12.2601 3.375 11.8125 3.375H6.1875C5.73995 3.375 5.31072 3.55279 4.99426 3.86926C4.67779 4.18572 4.5 4.61495 4.5 5.0625V6.75H5.625V6.1875C5.625 6.03832 5.68426 5.89524 5.78975 5.78975C5.89524 5.68426 6.03832 5.625 6.1875 5.625H7.875C8.02418 5.625 8.16726 5.68426 8.27275 5.78975C8.37824 5.89524 8.4375 6.03832 8.4375 6.1875V6.75H9.5625V6.1875C9.5625 6.03832 9.62176 5.89524 9.72725 5.78975C9.83274 5.68426 9.97582 5.625 10.125 5.625H11.8125C11.9617 5.625 12.1048 5.68426 12.2102 5.78975C12.3157 5.89524 12.375 6.03832 12.375 6.1875V6.75H13.5V5.0625Z" fill="black"/>
</svg>
