<svg width="18" height="18" viewBox="0 0 18 18" fill="none" xmlns="http://www.w3.org/2000/svg">
<path d="M14.9551 7.03251C14.5396 6.05671 13.8909 5.19782 13.066 4.53124C12.2411 3.86465 11.2652 3.41076 10.2239 3.20941L11.1645 1.7044L10.2105 1.10815L8.96931 3.09406C7.70501 3.09993 6.47013 3.47607 5.41725 4.176C4.36436 4.87594 3.53961 5.86901 3.04488 7.03251C2.38221 7.04511 1.75093 7.3172 1.28674 7.7903C0.822544 8.2634 0.5625 8.89973 0.5625 9.56253C0.5625 10.2253 0.822544 10.8617 1.28674 11.3348C1.75093 11.8079 2.38221 12.08 3.04488 12.0925C3.54172 13.2608 4.37121 14.2572 5.43009 14.9575C6.48897 15.6579 7.73047 16.0313 9 16.0313C10.2695 16.0313 11.511 15.6579 12.5699 14.9575C13.6288 14.2572 14.4583 13.2608 14.9551 12.0925C15.6178 12.08 16.2491 11.8079 16.7133 11.3348C17.1775 10.8617 17.4375 10.2253 17.4375 9.56253C17.4375 8.89973 17.1775 8.2634 16.7133 7.7903C16.2491 7.3172 15.6178 7.04511 14.9551 7.03251ZM15.9097 10.5473C15.6524 10.8104 15.3017 10.9615 14.9337 10.9678L14.2051 10.9816L13.9199 11.6522C13.5095 12.6175 12.8243 13.4407 11.9494 14.0193C11.0746 14.598 10.0489 14.9066 9.00002 14.9066C7.95113 14.9066 6.92542 14.598 6.0506 14.0193C5.17578 13.4407 4.49052 12.6175 4.08013 11.6522L3.79487 10.9816L3.06626 10.9678C2.69812 10.9609 2.34739 10.8098 2.08948 10.547C1.83157 10.2842 1.68708 9.93073 1.68708 9.56253C1.68708 9.19433 1.83157 8.84083 2.08948 8.57805C2.34739 8.31527 2.69812 8.16419 3.06626 8.1573L3.79487 8.14345L4.08013 7.47288C4.49053 6.50762 5.1758 5.68441 6.05062 5.10575C6.92543 4.52709 7.95114 4.21855 9.00002 4.21855C10.0489 4.21855 11.0746 4.52709 11.9494 5.10575C12.8242 5.68441 13.5095 6.50762 13.9199 7.47288L14.2051 8.14345L14.9337 8.1573C15.2083 8.16249 15.4754 8.24801 15.7019 8.40331C15.9284 8.5586 16.1044 8.77686 16.2082 9.0311C16.312 9.28535 16.3391 9.56444 16.286 9.8339C16.233 10.1033 16.1021 10.3514 15.9097 10.5473V10.5473Z" fill="black"/>
<path d="M5.90625 8.15625H7.3125V9.5625H5.90625V8.15625ZM10.6875 8.15625H12.0938V9.5625H10.6875V8.15625ZM9 13.5C9.36934 13.5 9.73507 13.4273 10.0763 13.2859C10.4175 13.1446 10.7276 12.9374 10.9887 12.6762C11.2499 12.4151 11.4571 12.105 11.5984 11.7638C11.7398 11.4226 11.8125 11.0568 11.8125 10.6875H6.1875C6.1875 11.0568 6.26025 11.4226 6.40159 11.7638C6.54293 12.105 6.7501 12.4151 7.01126 12.6762C7.53871 13.2037 8.25408 13.5 9 13.5V13.5Z" fill="black"/>
</svg>
