<svg width="13" height="13" viewBox="0 0 13 13" fill="none" xmlns="http://www.w3.org/2000/svg">
<g clip-path="url(#clip0_16_683)">
<path d="M11.6459 2.16666H10.4723V2.88889H11.5556V10.8333H1.44448V2.88889H2.52782V2.16666H1.35421C1.26979 2.16807 1.18648 2.1861 1.10903 2.21971C1.03159 2.25333 0.961522 2.30187 0.902839 2.36256C0.844155 2.42326 0.798003 2.49492 0.767019 2.57346C0.736035 2.65199 0.720826 2.73586 0.722261 2.82028V10.9019C0.720826 10.9864 0.736035 11.0702 0.767019 11.1488C0.798003 11.2273 0.844155 11.299 0.902839 11.3597C0.961522 11.4204 1.03159 11.4689 1.10903 11.5025C1.18648 11.5361 1.26979 11.5541 1.35421 11.5556H11.6459C11.7303 11.5541 11.8136 11.5361 11.891 11.5025C11.9685 11.4689 12.0386 11.4204 12.0972 11.3597C12.1559 11.299 12.2021 11.2273 12.2331 11.1488C12.264 11.0702 12.2793 10.9864 12.2778 10.9019V2.82028C12.2793 2.73586 12.264 2.65199 12.2331 2.57346C12.2021 2.49492 12.1559 2.42326 12.0972 2.36256C12.0386 2.30187 11.9685 2.25333 11.891 2.21971C11.8136 2.1861 11.7303 2.16807 11.6459 2.16666V2.16666Z" fill="#141414"/>
<path d="M2.88892 5.05556H3.61114V5.77778H2.88892V5.05556Z" fill="#141414"/>
<path d="M5.05554 5.05556H5.77776V5.77778H5.05554V5.05556Z" fill="#141414"/>
<path d="M7.22217 5.05556H7.94439V5.77778H7.22217V5.05556Z" fill="#141414"/>
<path d="M9.38892 5.05556H10.1111V5.77778H9.38892V5.05556Z" fill="#141414"/>
<path d="M2.88892 6.86111H3.61114V7.58334H2.88892V6.86111Z" fill="#141414"/>
<path d="M5.05554 6.86111H5.77776V7.58334H5.05554V6.86111Z" fill="#141414"/>
<path d="M7.22217 6.86111H7.94439V7.58334H7.22217V6.86111Z" fill="#141414"/>
<path d="M9.38892 6.86111H10.1111V7.58334H9.38892V6.86111Z" fill="#141414"/>
<path d="M2.88892 8.66666H3.61114V9.38889H2.88892V8.66666Z" fill="#141414"/>
<path d="M5.05554 8.66666H5.77776V9.38889H5.05554V8.66666Z" fill="#141414"/>
<path d="M7.22217 8.66666H7.94439V9.38889H7.22217V8.66666Z" fill="#141414"/>
<path d="M9.38892 8.66666H10.1111V9.38889H9.38892V8.66666Z" fill="#141414"/>
<path d="M3.61111 3.61111C3.70688 3.61111 3.79873 3.57306 3.86646 3.50534C3.93418 3.43762 3.97222 3.34577 3.97222 3.25V1.08333C3.97222 0.98756 3.93418 0.89571 3.86646 0.827988C3.79873 0.760267 3.70688 0.722221 3.61111 0.722221C3.51534 0.722221 3.42349 0.760267 3.35577 0.827988C3.28805 0.89571 3.25 0.98756 3.25 1.08333V3.25C3.25 3.34577 3.28805 3.43762 3.35577 3.50534C3.42349 3.57306 3.51534 3.61111 3.61111 3.61111Z" fill="#141414"/>
<path d="M9.38894 3.61111C9.48472 3.61111 9.57657 3.57306 9.64429 3.50534C9.71201 3.43762 9.75005 3.34577 9.75005 3.25V1.08333C9.75005 0.98756 9.71201 0.89571 9.64429 0.827988C9.57657 0.760267 9.48472 0.722221 9.38894 0.722221C9.29317 0.722221 9.20132 0.760267 9.1336 0.827988C9.06588 0.89571 9.02783 0.98756 9.02783 1.08333V3.25C9.02783 3.34577 9.06588 3.43762 9.1336 3.50534C9.20132 3.57306 9.29317 3.61111 9.38894 3.61111Z" fill="#141414"/>
<path d="M4.69446 2.16666H8.30557V2.88889H4.69446V2.16666Z" fill="#141414"/>
</g>
<defs>
<clipPath id="clip0_16_683">
<rect width="13" height="13" fill="white"/>
</clipPath>
</defs>
</svg>
