<svg width="13" height="13" viewBox="0 0 13 13" fill="none" xmlns="http://www.w3.org/2000/svg">
<path d="M10.5609 4.32737L6.49999 8.28587L2.43911 4.32737C2.36656 4.25651 2.26916 4.21683 2.16774 4.21683C2.06631 4.21683 1.96892 4.25651 1.89636 4.32737C1.86123 4.3618 1.83332 4.40288 1.81427 4.44822C1.79521 4.49356 1.7854 4.54225 1.7854 4.59144C1.7854 4.64062 1.79521 4.68931 1.81427 4.73465C1.83332 4.77999 1.86123 4.82108 1.89636 4.8555L6.21642 9.0675C6.29229 9.14145 6.39404 9.18283 6.49999 9.18283C6.60593 9.18283 6.70768 9.14145 6.78355 9.0675L11.1036 4.85631C11.139 4.82186 11.1671 4.78068 11.1863 4.73519C11.2055 4.68969 11.2154 4.64082 11.2154 4.59144C11.2154 4.54206 11.2055 4.49318 11.1863 4.44769C11.1671 4.40219 11.139 4.36101 11.1036 4.32656C11.0311 4.25569 10.9337 4.21602 10.8322 4.21602C10.7308 4.21602 10.6334 4.25569 10.5609 4.32656V4.32737Z" fill="#141414"/>
</svg>
