<svg width="16" height="16" viewBox="0 0 16 16" fill="none" xmlns="http://www.w3.org/2000/svg">
<path d="M14.6663 12.6667V6C14.6663 5.64638 14.5259 5.30724 14.2758 5.05719C14.0258 4.80714 13.6866 4.66667 13.333 4.66667H8.82367C8.57601 4.66666 8.33325 4.59767 8.12259 4.46744C7.91193 4.33721 7.74171 4.15088 7.63101 3.92933L7.03501 2.73733C6.92425 2.51569 6.75393 2.32929 6.54314 2.19905C6.33236 2.06881 6.08945 1.99988 5.84167 2H2.66634C2.31272 2 1.97358 2.14048 1.72353 2.39052C1.47348 2.64057 1.33301 2.97971 1.33301 3.33333V12.6667C1.33301 13.0203 1.47348 13.3594 1.72353 13.6095C1.97358 13.8595 2.31272 14 2.66634 14H13.333C13.6866 14 14.0258 13.8595 14.2758 13.6095C14.5259 13.3594 14.6663 13.0203 14.6663 12.6667Z" stroke="black" stroke-linecap="round" stroke-linejoin="round"/>
</svg>
