<svg width="18" height="18" viewBox="0 0 18 18" fill="none" xmlns="http://www.w3.org/2000/svg">
<g clip-path="url(#clip0_133_4583)">
<path d="M6.75 0.75V1.5H7.5V3.75H6.75V4.5H9V3.75H8.25V1.5H9V0.75M6.75 5.25C5.9175 5.25 5.25 5.9175 5.25 6.75V15.75C5.25 16.5825 5.9175 17.25 6.75 17.25H15.75C16.5825 17.25 17.25 16.5825 17.25 15.75V6.75C17.25 5.9175 16.5825 5.25 15.75 5.25M0.75 6.75V9H1.5V8.25H3.75V9H4.5V6.75H3.75V7.5H1.5V6.75M6.75 6.75H15.75V15.75H6.75M10.5 7.5V8.25H11.25V12H8.25V11.25H7.5V13.5H8.25V12.75H11.25V14.25H10.5V15H12.75V14.25H12V12.75H14.25V13.5H15V11.25H14.25V12H12V8.25H12.75V7.5" fill="black"/>
</g>
<defs>
<clipPath id="clip0_133_4583">
<rect width="18" height="18" fill="white"/>
</clipPath>
</defs>
</svg>
