<svg width="18" height="18" viewBox="0 0 18 18" fill="none" xmlns="http://www.w3.org/2000/svg">
<path d="M7.5 5.25H10.5M1.125 10.875C1.125 10.875 4.125 3.75 4.5 3C4.875 2.25 5.625 2.25 6 2.25C6.375 2.25 7.5 2.25 7.5 3.75V12M16.875 10.875C16.875 10.875 13.875 3.75 13.5 3C13.125 2.25 12.375 2.25 12 2.25C11.625 2.25 10.5 2.25 10.5 3.75V12M7.5 12H10.5M13.875 15.75C14.3182 15.75 14.7571 15.6627 15.1666 15.4931C15.576 15.3235 15.9481 15.0749 16.2615 14.7615C16.5749 14.4481 16.8235 14.076 16.9931 13.6666C17.1627 13.2571 17.25 12.8182 17.25 12.375C17.25 11.9318 17.1627 11.4929 16.9931 11.0834C16.8235 10.674 16.5749 10.3019 16.2615 9.98851C15.9481 9.67512 15.576 9.42652 15.1666 9.25691C14.7571 9.0873 14.3182 9 13.875 9C12.9799 9 12.1215 9.35558 11.4885 9.98851C10.8556 10.6215 10.5 11.4799 10.5 12.375C10.5 13.2701 10.8556 14.1285 11.4885 14.7615C12.1215 15.3944 12.9799 15.75 13.875 15.75V15.75ZM4.125 15.75C3.68179 15.75 3.24292 15.6627 2.83344 15.4931C2.42397 15.3235 2.05191 15.0749 1.73851 14.7615C1.42512 14.4481 1.17652 14.076 1.00691 13.6666C0.837297 13.2571 0.75 12.8182 0.75 12.375C0.75 11.9318 0.837297 11.4929 1.00691 11.0834C1.17652 10.674 1.42512 10.3019 1.73851 9.98851C2.05191 9.67512 2.42397 9.42652 2.83344 9.25691C3.24292 9.0873 3.68179 9 4.125 9C5.02011 9 5.87855 9.35558 6.51149 9.98851C7.14442 10.6215 7.5 11.4799 7.5 12.375C7.5 13.2701 7.14442 14.1285 6.51149 14.7615C5.87855 15.3944 5.02011 15.75 4.125 15.75V15.75Z" stroke="black"/>
</svg>
